<mxfile host="app.diagrams.net" agent="Mozilla/5.0 (Windows NT 10.0; Win64; x64; rv:133.0) Gecko/20100101 Firefox/133.0" version="25.0.1">
  <diagram name="Page-1" id="KudIh-6avbkNtFGrAc5S">
    <mxGraphModel dx="1567" dy="775" grid="1" gridSize="10" guides="1" tooltips="1" connect="1" arrows="1" fold="1" page="1" pageScale="1" pageWidth="850" pageHeight="1100" math="0" shadow="0">
      <root>
        <mxCell id="0" />
        <mxCell id="1" parent="0" />
        <mxCell id="jN4A_COsJMNczTyIrR8C-2" value="" style="swimlane;startSize=0;" vertex="1" parent="1">
          <mxGeometry x="-390" y="100" width="350" height="340" as="geometry" />
        </mxCell>
        <mxCell id="jN4A_COsJMNczTyIrR8C-3" value="User Interface" style="text;html=1;align=center;verticalAlign=middle;resizable=0;points=[];autosize=1;strokeColor=none;fillColor=none;" vertex="1" parent="jN4A_COsJMNczTyIrR8C-2">
          <mxGeometry y="8" width="100" height="30" as="geometry" />
        </mxCell>
        <mxCell id="jN4A_COsJMNczTyIrR8C-9" value="" style="swimlane;startSize=0;" vertex="1" parent="jN4A_COsJMNczTyIrR8C-2">
          <mxGeometry x="10" y="40" width="320" height="170" as="geometry" />
        </mxCell>
        <mxCell id="jN4A_COsJMNczTyIrR8C-11" value="&lt;div&gt;HTML Tempaltes&lt;/div&gt;" style="text;html=1;align=center;verticalAlign=middle;resizable=0;points=[];autosize=1;strokeColor=none;fillColor=none;" vertex="1" parent="jN4A_COsJMNczTyIrR8C-9">
          <mxGeometry x="10" y="10" width="120" height="30" as="geometry" />
        </mxCell>
        <mxCell id="jN4A_COsJMNczTyIrR8C-14" value="" style="swimlane;startSize=0;" vertex="1" parent="jN4A_COsJMNczTyIrR8C-2">
          <mxGeometry x="10" y="230" width="320" height="90" as="geometry" />
        </mxCell>
        <mxCell id="jN4A_COsJMNczTyIrR8C-12" value="&lt;div&gt;Home Page&lt;/div&gt;" style="whiteSpace=wrap;html=1;" vertex="1" parent="1">
          <mxGeometry x="-370" y="220" width="120" height="60" as="geometry" />
        </mxCell>
        <mxCell id="jN4A_COsJMNczTyIrR8C-13" value="Company Details Page" style="whiteSpace=wrap;html=1;" vertex="1" parent="1">
          <mxGeometry x="-210" y="220" width="120" height="60" as="geometry" />
        </mxCell>
        <mxCell id="jN4A_COsJMNczTyIrR8C-16" value="Forms" style="text;html=1;align=center;verticalAlign=middle;resizable=0;points=[];autosize=1;strokeColor=none;fillColor=none;" vertex="1" parent="1">
          <mxGeometry x="-390" y="328" width="60" height="30" as="geometry" />
        </mxCell>
        <mxCell id="jN4A_COsJMNczTyIrR8C-17" value="" style="swimlane;startSize=0;" vertex="1" parent="1">
          <mxGeometry x="-370" y="520" width="340" height="620" as="geometry" />
        </mxCell>
        <mxCell id="jN4A_COsJMNczTyIrR8C-27" value="" style="swimlane;startSize=0;" vertex="1" parent="jN4A_COsJMNczTyIrR8C-17">
          <mxGeometry x="10" y="30" width="320" height="170" as="geometry" />
        </mxCell>
        <mxCell id="jN4A_COsJMNczTyIrR8C-28" value="Controllers" style="text;html=1;align=center;verticalAlign=middle;resizable=0;points=[];autosize=1;strokeColor=none;fillColor=none;" vertex="1" parent="jN4A_COsJMNczTyIrR8C-27">
          <mxGeometry x="35" y="10" width="80" height="30" as="geometry" />
        </mxCell>
        <mxCell id="jN4A_COsJMNczTyIrR8C-30" value="API controllers" style="whiteSpace=wrap;html=1;" vertex="1" parent="jN4A_COsJMNczTyIrR8C-27">
          <mxGeometry x="170" y="40" width="120" height="60" as="geometry" />
        </mxCell>
        <mxCell id="jN4A_COsJMNczTyIrR8C-31" value="" style="swimlane;startSize=0;" vertex="1" parent="jN4A_COsJMNczTyIrR8C-17">
          <mxGeometry x="10" y="210" width="320" height="110" as="geometry" />
        </mxCell>
        <mxCell id="jN4A_COsJMNczTyIrR8C-35" value="Stock Data Model" style="whiteSpace=wrap;html=1;" vertex="1" parent="jN4A_COsJMNczTyIrR8C-31">
          <mxGeometry x="170" y="20" width="120" height="60" as="geometry" />
        </mxCell>
        <mxCell id="jN4A_COsJMNczTyIrR8C-36" value="" style="swimlane;startSize=0;" vertex="1" parent="jN4A_COsJMNczTyIrR8C-17">
          <mxGeometry x="10" y="330" width="320" height="130" as="geometry" />
        </mxCell>
        <mxCell id="jN4A_COsJMNczTyIrR8C-37" value="Services" style="text;html=1;align=center;verticalAlign=middle;resizable=0;points=[];autosize=1;strokeColor=none;fillColor=none;" vertex="1" parent="jN4A_COsJMNczTyIrR8C-36">
          <mxGeometry x="-5" width="70" height="30" as="geometry" />
        </mxCell>
        <mxCell id="jN4A_COsJMNczTyIrR8C-38" value="Data Processing Service" style="whiteSpace=wrap;html=1;" vertex="1" parent="jN4A_COsJMNczTyIrR8C-36">
          <mxGeometry x="30" y="35" width="120" height="60" as="geometry" />
        </mxCell>
        <mxCell id="jN4A_COsJMNczTyIrR8C-39" value="AI Prediction Service" style="whiteSpace=wrap;html=1;" vertex="1" parent="jN4A_COsJMNczTyIrR8C-36">
          <mxGeometry x="180" y="35" width="120" height="60" as="geometry" />
        </mxCell>
        <mxCell id="jN4A_COsJMNczTyIrR8C-41" value="" style="swimlane;startSize=0;" vertex="1" parent="jN4A_COsJMNczTyIrR8C-17">
          <mxGeometry x="10" y="480" width="320" height="110" as="geometry" />
        </mxCell>
        <mxCell id="jN4A_COsJMNczTyIrR8C-42" value="Pipelines" style="text;html=1;align=center;verticalAlign=middle;resizable=0;points=[];autosize=1;strokeColor=none;fillColor=none;" vertex="1" parent="jN4A_COsJMNczTyIrR8C-41">
          <mxGeometry width="80" height="30" as="geometry" />
        </mxCell>
        <mxCell id="jN4A_COsJMNczTyIrR8C-43" value="Fetch Filter" style="whiteSpace=wrap;html=1;" vertex="1" parent="jN4A_COsJMNczTyIrR8C-41">
          <mxGeometry x="10" y="40" width="90" height="40" as="geometry" />
        </mxCell>
        <mxCell id="jN4A_COsJMNczTyIrR8C-44" value="Clean Filter" style="whiteSpace=wrap;html=1;" vertex="1" parent="jN4A_COsJMNczTyIrR8C-41">
          <mxGeometry x="110" y="40" width="100" height="40" as="geometry" />
        </mxCell>
        <mxCell id="jN4A_COsJMNczTyIrR8C-45" value="Store Filter" style="whiteSpace=wrap;html=1;" vertex="1" parent="jN4A_COsJMNczTyIrR8C-41">
          <mxGeometry x="220" y="40" width="80" height="40" as="geometry" />
        </mxCell>
        <mxCell id="jN4A_COsJMNczTyIrR8C-18" value="&lt;div&gt;Backend&lt;/div&gt;&amp;nbsp;Components" style="text;html=1;align=center;verticalAlign=middle;resizable=0;points=[];autosize=1;strokeColor=none;fillColor=none;" vertex="1" parent="1">
          <mxGeometry x="-380" y="513" width="100" height="40" as="geometry" />
        </mxCell>
        <mxCell id="jN4A_COsJMNczTyIrR8C-21" value="" style="endArrow=classic;html=1;rounded=0;exitX=0.12;exitY=1.006;exitDx=0;exitDy=0;exitPerimeter=0;" edge="1" parent="1" source="jN4A_COsJMNczTyIrR8C-2">
          <mxGeometry width="50" height="50" relative="1" as="geometry">
            <mxPoint x="-80" y="600" as="sourcePoint" />
            <mxPoint x="-345" y="520" as="targetPoint" />
          </mxGeometry>
        </mxCell>
        <mxCell id="jN4A_COsJMNczTyIrR8C-22" value="&lt;div&gt;Request&lt;/div&gt;" style="edgeLabel;html=1;align=center;verticalAlign=middle;resizable=0;points=[];" vertex="1" connectable="0" parent="jN4A_COsJMNczTyIrR8C-21">
          <mxGeometry x="-0.0562" y="-4" relative="1" as="geometry">
            <mxPoint as="offset" />
          </mxGeometry>
        </mxCell>
        <mxCell id="jN4A_COsJMNczTyIrR8C-25" style="edgeStyle=orthogonalEdgeStyle;rounded=0;orthogonalLoop=1;jettySize=auto;html=1;exitX=0.75;exitY=0;exitDx=0;exitDy=0;entryX=0.786;entryY=1.006;entryDx=0;entryDy=0;entryPerimeter=0;" edge="1" parent="1" source="jN4A_COsJMNczTyIrR8C-17" target="jN4A_COsJMNczTyIrR8C-2">
          <mxGeometry relative="1" as="geometry" />
        </mxCell>
        <mxCell id="jN4A_COsJMNczTyIrR8C-26" value="&lt;div&gt;Response&lt;/div&gt;" style="edgeLabel;html=1;align=center;verticalAlign=middle;resizable=0;points=[];" vertex="1" connectable="0" parent="jN4A_COsJMNczTyIrR8C-25">
          <mxGeometry x="0.0279" y="-4" relative="1" as="geometry">
            <mxPoint as="offset" />
          </mxGeometry>
        </mxCell>
        <mxCell id="jN4A_COsJMNczTyIrR8C-29" value="Data Display controllers" style="whiteSpace=wrap;html=1;" vertex="1" parent="1">
          <mxGeometry x="-330" y="590" width="120" height="60" as="geometry" />
        </mxCell>
        <mxCell id="jN4A_COsJMNczTyIrR8C-32" value="Models" style="text;html=1;align=center;verticalAlign=middle;resizable=0;points=[];autosize=1;strokeColor=none;fillColor=none;" vertex="1" parent="1">
          <mxGeometry x="-370" y="728" width="60" height="30" as="geometry" />
        </mxCell>
        <mxCell id="jN4A_COsJMNczTyIrR8C-33" value="Company Models" style="whiteSpace=wrap;html=1;" vertex="1" parent="1">
          <mxGeometry x="-320" y="750" width="120" height="60" as="geometry" />
        </mxCell>
        <mxCell id="jN4A_COsJMNczTyIrR8C-46" value="" style="swimlane;startSize=0;" vertex="1" parent="1">
          <mxGeometry x="-370" y="1160" width="340" height="100" as="geometry" />
        </mxCell>
        <mxCell id="jN4A_COsJMNczTyIrR8C-48" value="&lt;div&gt;&lt;br&gt;&lt;/div&gt;&lt;div&gt;Data Storage&lt;/div&gt;&lt;div&gt;(CSV)&lt;br&gt;&lt;/div&gt;" style="whiteSpace=wrap;html=1;" vertex="1" parent="jN4A_COsJMNczTyIrR8C-46">
          <mxGeometry x="20" y="28" width="120" height="60" as="geometry" />
        </mxCell>
        <mxCell id="jN4A_COsJMNczTyIrR8C-47" value="Data Layer" style="text;html=1;align=center;verticalAlign=middle;resizable=0;points=[];autosize=1;strokeColor=none;fillColor=none;" vertex="1" parent="jN4A_COsJMNczTyIrR8C-46">
          <mxGeometry width="80" height="30" as="geometry" />
        </mxCell>
        <mxCell id="jN4A_COsJMNczTyIrR8C-49" value="&lt;div&gt;Data Access Components&lt;/div&gt;&lt;div&gt;(FileField)&lt;br&gt;&lt;/div&gt;" style="whiteSpace=wrap;html=1;" vertex="1" parent="jN4A_COsJMNczTyIrR8C-46">
          <mxGeometry x="190" y="28" width="120" height="60" as="geometry" />
        </mxCell>
        <mxCell id="jN4A_COsJMNczTyIrR8C-50" value="" style="endArrow=classic;startArrow=classic;html=1;rounded=0;exitX=0.5;exitY=1;exitDx=0;exitDy=0;entryX=0.479;entryY=0.02;entryDx=0;entryDy=0;entryPerimeter=0;" edge="1" parent="1" source="jN4A_COsJMNczTyIrR8C-17" target="jN4A_COsJMNczTyIrR8C-46">
          <mxGeometry width="50" height="50" relative="1" as="geometry">
            <mxPoint x="-80" y="1090" as="sourcePoint" />
            <mxPoint x="-30" y="1040" as="targetPoint" />
          </mxGeometry>
        </mxCell>
      </root>
    </mxGraphModel>
  </diagram>
</mxfile>
